<svg id="Layer_1" data-name="Layer 1" xmlns="http://www.w3.org/2000/svg" viewBox="0 0 500 500"><path class="cls-1" d="M297.2,230.3l-15.33-12.55V205.91a2.84,2.84,0,0,0-2.84-2.84H263.94l-12.12-9.93a2.85,2.85,0,0,0-3.59,0l-12.31,9.94H220.36a2.85,2.85,0,0,0-2.85,2.84v12L202.2,230.29a2.84,2.84,0,0,0-1.06,2.21v54.26a2.85,2.85,0,0,0,2.84,2.85H295.4a2.86,2.86,0,0,0,2.85-2.85V232.5a2.85,2.85,0,0,0-1.05-2.2Zm-68.58,28-21.79,21.65V238.85Zm4.26,3.79,14.92,13.31a2.85,2.85,0,0,0,3.79,0l14.92-13.31,22,21.85H210.88Zm37.88-3.79,21.8-19.43v41.08ZM291,232.59l-9.15,8.16V225.1ZM250,199l5,4.06H245Zm26.18,9.75v37.06l-26.49,23.62L223.2,245.82V208.76Zm-58.67,32-9.13-8.14,9.13-7.37Zm0,0"/><path class="cls-1" d="M232,220h35.45a2.85,2.85,0,0,0,0-5.69H232a2.85,2.85,0,1,0,0,5.69Zm0,0"/><path class="cls-1" d="M232,229.41h12.17a2.85,2.85,0,0,0,0-5.69H232a2.85,2.85,0,1,0,0,5.69Zm0,0"/><path class="cls-1" d="M267.42,223.72H255.25a2.85,2.85,0,1,0,0,5.69h12.17a2.85,2.85,0,0,0,0-5.69Zm0,0"/><path class="cls-1" d="M232,238.89h12.17a2.85,2.85,0,0,0,0-5.69H232a2.85,2.85,0,1,0,0,5.69Zm0,0"/><path class="cls-1" d="M267.42,233.2H255.25a2.85,2.85,0,1,0,0,5.69h12.17a2.85,2.85,0,0,0,0-5.69Zm0,0"/><path class="cls-1" d="M232,248.38h35.45a2.85,2.85,0,0,0,0-5.69H232a2.85,2.85,0,1,0,0,5.69Zm0,0"/></svg>