<svg id="Layer_1" data-name="Layer 1" xmlns="http://www.w3.org/2000/svg" viewBox="0 0 500 500"><path class="cls-1" d="M210.49,248.25l36.32,39.69a30,30,0,0,0,42.39,1.88l4.92-4.51a10,10,0,0,0,.63-14.13l-9-9.84a10,10,0,0,0-14.14-.62l-4.92,4.5A3.34,3.34,0,0,1,262,265l-27.31-29.85a3.34,3.34,0,0,1,.21-4.71l4.92-4.5a10,10,0,0,0,.62-14.13l-9-9.84a10,10,0,0,0-14.13-.63l-4.92,4.5a30,30,0,0,0-1.88,42.4Zm65.62,17.39a3.35,3.35,0,0,1,4.72.2l9,9.84a3.33,3.33,0,0,1-.21,4.71l-2.46,2.26-13.5-14.76Zm-46.36-26,27.31,29.85A10,10,0,0,0,268.35,272l13.73,15a23.38,23.38,0,0,1-30.36-3.54l-36.31-39.68a23.37,23.37,0,0,1-.84-30.55l13.73,15a10,10,0,0,0,1.45,11.45Zm-8-33.39a3.33,3.33,0,0,1,4.71.21l9,9.84a3.33,3.33,0,0,1-.2,4.71l-2.46,2.25-13.51-14.76Zm0,0"/></svg>